<svg width="152" height="152" xmlns="http://www.w3.org/2000/svg" xmlns:xlink="http://www.w3.org/1999/xlink" xml:space="preserve" overflow="hidden"><g transform="translate(-714 -148)"><path d="M720.333 260.258C719.459 260.257 718.751 259.546 718.753 258.672 718.754 258.066 719.101 257.514 719.646 257.25L764.454 235.717C766.925 234.282 769.726 233.514 772.583 233.487L810.583 233.487C814.956 233.487 818.5 237.032 818.5 241.404 818.5 245.776 814.956 249.321 810.583 249.321L782.083 249.321C781.209 249.321 780.5 248.612 780.5 247.737 780.5 246.863 781.209 246.154 782.083 246.154L810.583 246.154C813.207 246.154 815.333 244.027 815.333 241.404 815.333 238.781 813.207 236.654 810.583 236.654L772.583 236.654C770.243 236.675 767.949 237.313 765.933 238.503L721.021 260.1C720.806 260.204 720.571 260.258 720.333 260.258Z"/><path d="M742.5 282.425C741.626 282.425 740.917 281.716 740.917 280.841 740.917 280.422 741.084 280.019 741.381 279.722 751.145 269.956 764.307 265.008 780.5 265.008L810.108 265.008C811.147 265.003 812.157 264.663 812.987 264.038L856.418 232.284C857.426 231.307 858.022 229.98 858.083 228.577 858.083 225.954 855.957 223.827 853.333 223.827 852.467 223.802 851.614 224.041 850.887 224.511L823.725 240.087C822.957 240.505 821.996 240.223 821.577 239.455 821.17 238.71 821.424 237.777 822.151 237.34L849.226 221.823C850.449 221.036 851.879 220.631 853.333 220.659 857.703 220.664 861.245 224.206 861.25 228.576 861.198 230.862 860.236 233.033 858.577 234.608L858.391 234.767 814.849 266.601C813.477 267.618 811.816 268.169 810.108 268.175L780.5 268.175C765.175 268.175 752.765 272.816 743.618 281.966 743.321 282.261 742.919 282.426 742.5 282.425Z"/><path d="M809.792 173.333C815.333 173.333 820.083 179.179 820.083 183.965 820.083 195.312 804.408 210.51 796.333 217.132 788.258 210.518 772.583 195.329 772.583 183.965 772.703 181.239 773.832 178.654 775.75 176.712 777.567 174.664 780.139 173.444 782.875 173.333 786.898 173.333 790.575 176.408 793.505 182.224L796.319 187.807C796.327 187.822 796.34 187.822 796.348 187.807L799.161 182.224C802.092 176.408 805.768 173.333 809.792 173.333M809.792 170.167C805.2 170.167 800.244 173.058 796.348 180.775 796.34 180.789 796.327 180.789 796.319 180.775 792.424 173.059 787.467 170.167 782.875 170.167 775.706 170.167 769.417 177.212 769.417 183.965 769.417 200.59 796.333 221.174 796.333 221.174 796.333 221.174 823.25 200.59 823.25 183.965 823.25 177.214 816.961 170.167 809.792 170.167Z"/></g></svg>