<svg width="96" height="96" xmlns="http://www.w3.org/2000/svg" xmlns:xlink="http://www.w3.org/1999/xlink" xml:space="preserve" overflow="hidden"><g transform="translate(-19 -323)"><path d="M67.0209 335C86.8917 335 103 351.108 103 370.979 103 390.85 86.8917 406.958 67.0209 406.958 47.1501 406.958 31.0417 390.85 31.0417 370.979 31.0643 351.118 47.1595 335.023 67.0209 335M67.0209 333C46.0456 333 29.0417 350.004 29.0416 370.979 29.0415 391.954 46.0454 408.958 67.0207 408.958 87.996 408.958 105 391.955 105 370.979 105.009 350.013 88.0207 333.01 67.0548 333 67.0435 333 67.0322 333 67.0209 333Z"/><path d="M67.3765 386.65 67.3765 356.213C67.3765 356.201 67.3691 356.198 67.36 356.205L66.799 356.691C66.2289 357.173 65.6269 357.617 64.9971 358.019 64.3247 358.451 63.6309 358.86 62.9346 359.235 62.2339 359.612 61.5254 359.954 60.8296 360.253 60.3066 360.477 59.8066 360.675 59.3374 360.844L59.3374 358.941C61.1309 358.34 62.8487 357.533 64.4565 356.536 66.1655 355.473 67.7903 354.279 69.3165 352.967L69.6759 352.985 69.6759 386.65Z"/></g></svg>