<svg width="96" height="96" xmlns="http://www.w3.org/2000/svg" xmlns:xlink="http://www.w3.org/1999/xlink" xml:space="preserve" overflow="hidden"><g transform="translate(-482 -323)"><path d="M530.021 335C549.892 335 566 351.108 566 370.979 566 390.85 549.892 406.958 530.021 406.958 510.15 406.958 494.042 390.85 494.042 370.979 494.065 351.118 510.16 335.023 530.021 335M530.021 333C509.046 333 492.042 350.004 492.042 370.979 492.042 391.954 509.046 408.958 530.021 408.958 550.996 408.958 568 391.954 568 370.979 568.01 350.014 551.022 333.01 530.057 333 530.045 333 530.033 333 530.021 333Z"/><path d="M520.138 386.65 520.138 385.383C520.113 384.098 520.286 382.816 520.649 381.583 520.999 380.502 521.539 379.492 522.244 378.6 523.079 377.559 524.027 376.615 525.071 375.784 526.227 374.844 527.642 373.768 529.276 372.584 530.386 371.77 531.388 370.971 532.254 370.208 533.077 369.493 533.818 368.688 534.463 367.808 535.05 366.996 535.509 366.098 535.824 365.146 536.143 364.133 536.299 363.076 536.287 362.014 536.303 361.007 536.132 360.006 535.782 359.062 535.168 357.394 533.825 356.098 532.137 355.542 531.231 355.24 530.282 355.092 529.327 355.102 527.766 355.104 526.228 355.481 524.843 356.202 523.617 356.84 522.477 357.631 521.451 358.556L521.451 356.155C522.563 355.262 523.799 354.536 525.121 354 526.598 353.435 528.168 353.158 529.749 353.181 530.005 353.18 530.261 353.195 530.516 353.226 530.77 353.257 531.021 353.303 531.269 353.364 532.327 353.469 533.358 353.756 534.318 354.212 535.193 354.632 535.98 355.214 536.639 355.927 537.295 356.654 537.801 357.504 538.127 358.427 538.492 359.469 538.671 360.566 538.657 361.67 538.675 362.944 538.491 364.212 538.112 365.428 537.754 366.521 537.229 367.552 536.555 368.485 535.84 369.462 535.017 370.354 534.101 371.145 533.138 371.985 532.047 372.845 530.857 373.691 529.517 374.656 528.351 375.523 527.391 376.264 526.526 376.919 525.713 377.641 524.959 378.422 524.357 379.043 523.851 379.751 523.459 380.522 523.105 381.251 522.858 382.028 522.726 382.828 522.689 383.078 522.667 383.299 522.64 383.544 522.615 383.798 522.602 384.053 522.603 384.308L522.603 384.657 539.336 384.657 539.336 386.657Z"/></g></svg>