<svg width="153" height="167" xmlns="http://www.w3.org/2000/svg" xmlns:xlink="http://www.w3.org/1999/xlink" xml:space="preserve" overflow="hidden"><g transform="translate(-100 -141)"><path d="M109.969 137.026 109.969 25.5 102 25.5 102 15.9375 51 15.9375 51 25.5 43.0312 25.5 43.0312 137.026 31.875 137.026 31.875 140.213 121.125 140.213 121.125 137.026ZM54.1875 19.125 98.8125 19.125 98.8125 25.5 54.1875 25.5ZM46.2188 28.6875 106.781 28.6875 106.781 137.026 79.6875 137.026 79.6875 119.531 73.3125 119.531 73.3125 137.026 46.2188 137.026Z" transform="matrix(1 0 0 1.0915 100 141)"/><path d="M57.375 71.7188 63.75 71.7188 63.75 81.2812 57.375 81.2812Z" transform="matrix(1 0 0 1.0915 100 141)"/><path d="M57.375 55.7812 63.75 55.7812 63.75 65.3438 57.375 65.3438Z" transform="matrix(1 0 0 1.0915 100 141)"/><path d="M57.375 87.6562 63.75 87.6562 63.75 97.2188 57.375 97.2188Z" transform="matrix(1 0 0 1.0915 100 141)"/><path d="M57.375 103.594 63.75 103.594 63.75 113.156 57.375 113.156Z" transform="matrix(1 0 0 1.0915 100 141)"/><path d="M73.3125 71.7188 79.6875 71.7188 79.6875 81.2812 73.3125 81.2812Z" transform="matrix(1 0 0 1.0915 100 141)"/><path d="M73.3125 103.594 79.6875 103.594 79.6875 113.156 73.3125 113.156Z" transform="matrix(1 0 0 1.0915 100 141)"/><path d="M89.25 119.531 95.625 119.531 95.625 129.094 89.25 129.094Z" transform="matrix(1 0 0 1.0915 100 141)"/><path d="M89.25 39.8438 95.625 39.8438 95.625 49.4062 89.25 49.4062Z" transform="matrix(1 0 0 1.0915 100 141)"/><path d="M73.3125 87.6562 79.6875 87.6562 79.6875 97.2188 73.3125 97.2188Z" transform="matrix(1 0 0 1.0915 100 141)"/><path d="M73.3125 55.7812 79.6875 55.7812 79.6875 65.3438 73.3125 65.3438Z" transform="matrix(1 0 0 1.0915 100 141)"/><path d="M73.3125 39.8438 79.6875 39.8438 79.6875 49.4062 73.3125 49.4062Z" transform="matrix(1 0 0 1.0915 100 141)"/><path d="M57.375 39.8438 63.75 39.8438 63.75 49.4062 57.375 49.4062Z" transform="matrix(1 0 0 1.0915 100 141)"/><path d="M57.375 119.531 63.75 119.531 63.75 129.094 57.375 129.094Z" transform="matrix(1 0 0 1.0915 100 141)"/><path d="M89.25 71.7188 95.625 71.7188 95.625 81.2812 89.25 81.2812Z" transform="matrix(1 0 0 1.0915 100 141)"/><path d="M89.25 87.6562 95.625 87.6562 95.625 97.2188 89.25 97.2188Z" transform="matrix(1 0 0 1.0915 100 141)"/><path d="M89.25 103.594 95.625 103.594 95.625 113.156 89.25 113.156Z" transform="matrix(1 0 0 1.0915 100 141)"/><path d="M89.25 55.7812 95.625 55.7812 95.625 65.3438 89.25 65.3438Z" transform="matrix(1 0 0 1.0915 100 141)"/></g></svg>
