<svg width="153" height="153" xmlns="http://www.w3.org/2000/svg" xmlns:xlink="http://www.w3.org/1999/xlink" xml:space="preserve" overflow="hidden"><g transform="translate(-94 -513)"><path d="M148.317 594.955 137.36 594.955 137.36 584.081C138.208 584.617 139.191 584.901 140.195 584.9L150.323 584.9C153.085 584.933 155.435 582.894 155.791 580.154 156.091 577.251 153.98 574.655 151.076 574.355 150.895 574.337 150.714 574.327 150.532 574.328L141.926 574.328 137.447 571.041C136.605 570.401 135.797 569.717 135.025 568.993L134.403 568.434C132.52 566.755 130.013 565.954 127.505 566.231 122.88 566.794 119.428 570.761 119.508 575.419L119.508 596.592C119.512 601.55 123.53 605.568 128.487 605.573L143.033 605.573 143.033 622.558C142.998 625.32 145.038 627.672 147.778 628.027 147.955 628.045 148.132 628.053 148.307 628.053 151.224 628.062 153.597 625.706 153.606 622.789 153.606 622.782 153.606 622.775 153.606 622.768L153.606 600.242C153.603 597.322 151.236 594.957 148.317 594.955ZM133.684 577.4C132.976 576.878 131.978 577.029 131.456 577.737 130.933 578.446 131.084 579.444 131.793 579.966L134.183 581.719 134.183 598.135 148.328 598.135C149.487 598.14 150.422 599.083 150.419 600.242L150.419 622.768C150.42 623.926 149.482 624.866 148.324 624.868 148.248 624.868 148.173 624.864 148.098 624.856 146.981 624.676 146.176 623.688 146.224 622.558L146.224 602.385 128.487 602.385C125.29 602.381 122.699 599.79 122.695 596.592L122.695 575.384C122.633 572.355 124.869 569.767 127.875 569.388 129.478 569.214 131.079 569.728 132.28 570.804L132.887 571.349C133.74 572.146 134.632 572.898 135.562 573.604L140.885 577.507 150.534 577.507C151.693 577.508 152.632 578.448 152.632 579.607 152.632 579.681 152.628 579.755 152.62 579.829 152.44 580.946 151.454 581.752 150.323 581.705L140.198 581.705C139.75 581.704 139.314 581.563 138.95 581.302Z"/><path d="M127.477 564.319C131.878 564.319 135.445 560.751 135.445 556.35 135.445 551.949 131.878 548.381 127.477 548.381 123.076 548.381 119.508 551.949 119.508 556.35 119.508 560.751 123.076 564.319 127.477 564.319ZM127.477 551.569C130.117 551.569 132.258 553.709 132.258 556.35 132.258 558.991 130.117 561.131 127.477 561.131 124.836 561.131 122.695 558.991 122.695 556.35 122.695 553.709 124.836 551.569 127.477 551.569Z"/><path d="M138.625 610.219 127.469 610.219C120.43 610.211 114.727 604.507 114.719 597.469L114.719 576.75C114.719 575.87 114.005 575.156 113.125 575.156 112.245 575.156 111.531 575.87 111.531 576.75L111.531 597.469C111.54 605.04 116.865 611.564 124.281 613.088L124.281 626.156 116.312 626.156 116.312 629.344 135.438 629.344 135.438 626.156 127.469 626.156 127.469 613.406 138.625 613.406C139.505 613.406 140.219 612.693 140.219 611.812 140.219 610.932 139.505 610.219 138.625 610.219Z"/><path d="M172.094 591.094 197.594 591.094C198.474 591.094 199.188 590.38 199.188 589.5 199.188 588.62 198.474 587.906 197.594 587.906L143.406 587.906C142.526 587.906 141.812 588.62 141.812 589.5 141.812 590.38 142.526 591.094 143.406 591.094L168.906 591.094 168.906 626.156 157.75 626.156 157.75 629.344 183.25 629.344 183.25 626.156 172.094 626.156Z"/><path d="M221.5 596.592 221.5 575.44C221.588 570.764 218.122 566.78 213.479 566.22 210.979 565.952 208.482 566.753 206.603 568.424L205.982 568.985C205.209 569.709 204.401 570.392 203.559 571.033L199.079 574.32 190.473 574.32C187.552 574.32 185.185 576.688 185.186 579.609 185.186 579.788 185.195 579.968 185.214 580.146 185.57 582.886 187.921 584.925 190.683 584.892L200.813 584.892C201.816 584.896 202.8 584.614 203.65 584.081L203.65 594.963 192.696 594.963C189.778 594.967 187.413 597.331 187.408 600.25L187.408 622.768C187.407 625.686 189.772 628.052 192.69 628.053 192.695 628.053 192.7 628.053 192.706 628.053 192.881 628.053 193.056 628.053 193.235 628.027 195.975 627.671 198.014 625.32 197.979 622.558L197.979 605.573 212.526 605.573C217.481 605.565 221.496 601.548 221.5 596.592ZM202.056 581.302C201.693 581.562 201.257 581.703 200.81 581.705L190.69 581.705C189.56 581.75 188.574 580.945 188.391 579.829 188.268 578.677 189.103 577.642 190.255 577.519 190.33 577.511 190.405 577.507 190.479 577.507L200.128 577.507 205.451 573.604C206.38 572.899 207.272 572.146 208.124 571.349L208.732 570.802C209.927 569.732 211.519 569.217 213.114 569.385 216.137 569.762 218.383 572.366 218.312 575.411L218.312 596.592C218.309 599.79 215.718 602.381 212.521 602.385L194.792 602.385 194.792 622.558C194.84 623.688 194.034 624.676 192.916 624.856 192.322 624.924 191.727 624.73 191.287 624.325 190.845 623.929 190.593 623.362 190.596 622.768L190.596 600.242C190.597 599.083 191.537 598.144 192.696 598.143L206.837 598.143 206.837 581.727 209.228 579.974C209.937 579.451 210.087 578.453 209.564 577.745 209.042 577.036 208.043 576.885 207.335 577.408Z"/><path d="M213.531 564.319C217.932 564.319 221.5 560.751 221.5 556.35 221.5 551.949 217.932 548.381 213.531 548.381 209.13 548.381 205.562 551.949 205.562 556.35 205.562 560.751 209.13 564.319 213.531 564.319ZM213.531 551.569C216.172 551.569 218.312 553.709 218.312 556.35 218.312 558.991 216.172 561.131 213.531 561.131 210.891 561.131 208.75 558.991 208.75 556.35 208.75 553.709 210.891 551.569 213.531 551.569Z"/><path d="M227.875 575.156C226.995 575.156 226.281 575.87 226.281 576.75L226.281 597.469C226.273 604.507 220.57 610.211 213.531 610.219L202.375 610.219C201.495 610.219 200.781 610.932 200.781 611.812 200.781 612.693 201.495 613.406 202.375 613.406L213.531 613.406 213.531 626.156 205.562 626.156 205.562 629.344 224.688 629.344 224.688 626.156 216.719 626.156 216.719 613.088C224.134 611.563 229.46 605.04 229.469 597.469L229.469 576.75C229.469 575.87 228.755 575.156 227.875 575.156Z"/></g></svg>
