<svg width="152" height="152" xmlns="http://www.w3.org/2000/svg" xmlns:xlink="http://www.w3.org/1999/xlink" xml:space="preserve" overflow="hidden"><g transform="translate(-714 -330)"><path d="M799.483 349 761.483 349 761.483 415.5 748.816 415.5 748.816 418.667 761.483 418.667 761.483 434.5 748.816 434.5 748.816 437.667 761.483 437.667 761.483 467.75 764.649 467.75 764.649 437.667 805.816 437.667 805.816 434.5 764.649 434.5 764.649 418.667 799.483 418.667C817.816 418.667 832.733 403.041 832.733 383.833 832.733 364.626 817.816 349 799.483 349ZM799.483 415.5 764.649 415.5 764.649 352.167 799.483 352.167C816.071 352.167 829.566 366.372 829.566 383.833 829.566 401.294 816.071 415.5 799.483 415.5Z"/></g></svg>