<svg width="152" height="153" xmlns="http://www.w3.org/2000/svg" xmlns:xlink="http://www.w3.org/1999/xlink" xml:space="preserve" overflow="hidden"><g transform="translate(-714 -513)"><path d="M76 58.5992C82.9956 58.5992 88.6667 52.9281 88.6667 45.9325 88.6667 38.9369 82.9956 33.2658 76 33.2658 69.0044 33.2658 63.3333 38.9369 63.3333 45.9325 63.3333 52.9281 69.0044 58.5992 76 58.5992ZM76 36.4325C81.2467 36.4325 85.5 40.6858 85.5 45.9325 85.5 51.1792 81.2467 55.4325 76 55.4325 70.7533 55.4325 66.5 51.1792 66.5 45.9325 66.5035 40.6863 70.7538 36.4331 76 36.4262Z" transform="matrix(1 0 0 1.00658 714 513)"/><path d="M139.333 26.9167 136.167 26.9167 136.167 23.5917C136.167 21.0558 134.111 19 131.575 19L131.258 19C130.773 19.006 130.292 19.0899 129.833 19.2486L129.833 18.8417C129.833 16.3058 127.778 14.25 125.242 14.25L124.925 14.25C122.389 14.25 120.333 16.3058 120.333 18.8417L120.333 26.9167 31.6667 26.9167 31.6667 18.8417C31.6667 16.3058 29.6109 14.25 27.075 14.25L26.7583 14.25C24.2225 14.25 22.1667 16.3058 22.1667 18.8417L22.1667 19.2486C21.7081 19.0899 21.227 19.006 20.7417 19L20.425 19C17.8891 19 15.8333 21.0558 15.8333 23.5917L15.8333 26.9167 12.6667 26.9167C11.7922 26.9167 11.0833 27.6255 11.0833 28.5 11.0833 29.3745 11.7922 30.0833 12.6667 30.0833L15.8333 30.0833 15.8333 33.4083C15.8333 35.9442 17.8891 38 20.425 38L20.7417 38C21.227 37.994 21.7081 37.9101 22.1667 37.7514L22.1667 38.1583C22.1667 40.6942 24.2225 42.75 26.7583 42.75L27.075 42.75C29.6109 42.75 31.6667 40.6942 31.6667 38.1583L31.6667 30.0833 39.1305 30.0833 39.1305 56.3065C39.1451 59.0517 40.6095 61.5849 42.9812 62.9676L61.75 74.0303 61.75 89.7053 42.6645 102.055C40.4575 103.476 39.1256 105.922 39.1305 108.547L39.1305 137.75 53.0053 137.75 53.0053 112.763 64.1804 105.524 87.8275 105.524 99.0027 112.763 99.0027 137.75 112.877 137.75 112.877 108.552C112.882 105.927 111.55 103.481 109.343 102.06L90.2579 89.7101 90.2579 74.0351 109.014 62.9787C111.394 61.5972 112.864 59.0583 112.877 56.3065L112.877 30.0833 120.333 30.0833 120.333 38.1583C120.333 40.6942 122.389 42.75 124.925 42.75L125.242 42.75C127.778 42.75 129.833 40.6942 129.833 38.1583L129.833 37.7514C130.292 37.9101 130.773 37.994 131.258 38L131.575 38C134.111 38 136.167 35.9442 136.167 33.4083L136.167 30.0833 139.333 30.0833C140.208 30.0833 140.917 29.3745 140.917 28.5 140.917 27.6255 140.208 26.9167 139.333 26.9167ZM20.7417 34.8333 20.425 34.8333C19.6379 34.8333 19 34.1954 19 33.4083L19 23.5917C19 22.8046 19.6379 22.1667 20.425 22.1667L20.7417 22.1667C21.5287 22.1667 22.1667 22.8046 22.1667 23.5917L22.1667 33.4083C22.1667 34.1954 21.5287 34.8333 20.7417 34.8333ZM28.5 38.1583C28.5 38.9454 27.8621 39.5833 27.075 39.5833L26.7583 39.5833C25.9713 39.5833 25.3333 38.9454 25.3333 38.1583L25.3333 18.8417C25.3333 18.0546 25.9713 17.4167 26.7583 17.4167L27.075 17.4167C27.8621 17.4167 28.5 18.0546 28.5 18.8417ZM99.0027 30.0833 99.0027 51.8763 81.111 62.4023 70.8874 62.4023 53.0053 51.8763 53.0053 30.0833ZM109.711 108.552 109.711 134.583 102.169 134.583 102.169 111.041 88.7648 102.358 63.2431 102.358 49.8386 111.041 49.8386 134.583 42.2972 134.583 42.2972 108.552C42.2953 107.002 43.0814 105.557 44.384 104.717L65.759 90.8786 86.2458 90.8786 107.621 104.717C108.925 105.555 109.713 107.001 109.711 108.552ZM87.0913 87.7167 64.9167 87.7167 64.9167 74.5085C65.5335 73.8973 65.5381 72.9019 64.927 72.285 64.8296 72.1867 64.7197 72.1017 64.6 72.0322L44.5772 60.2316C43.1751 59.4176 42.3079 57.9229 42.2972 56.3018L42.2972 30.0833 49.8386 30.0833 49.8386 53.6877 70.0261 65.5627 81.9803 65.5627 102.169 53.6877 102.169 30.0833 109.711 30.0833 109.711 56.2954C109.7 57.9236 108.828 59.4242 107.418 60.2395L87.4443 72.0132C86.6911 72.457 86.4402 73.4274 86.8838 74.1808 86.945 74.2647 87.0145 74.3421 87.0913 74.4119ZM126.667 38.1583C126.667 38.9454 126.029 39.5833 125.242 39.5833L124.925 39.5833C124.138 39.5833 123.5 38.9454 123.5 38.1583L123.5 18.8417C123.5 18.0546 124.138 17.4167 124.925 17.4167L125.242 17.4167C126.029 17.4167 126.667 18.0546 126.667 18.8417L126.667 38.1583ZM133 33.4083C133 34.1954 132.362 34.8333 131.575 34.8333L131.258 34.8333C130.471 34.8333 129.833 34.1954 129.833 33.4083L129.833 23.5917C129.833 22.8046 130.471 22.1667 131.258 22.1667L131.575 22.1667C132.362 22.1667 133 22.8046 133 23.5917Z" transform="matrix(1 0 0 1.00658 714 513)"/></g></svg>