<svg width="96" height="96" xmlns="http://www.w3.org/2000/svg" xmlns:xlink="http://www.w3.org/1999/xlink" xml:space="preserve" overflow="hidden"><g transform="translate(-855 -322)"><path d="M903.021 334C922.892 334 939 350.108 939 369.979 939 389.85 922.892 405.958 903.021 405.958 883.15 405.958 867.042 389.85 867.042 369.979 867.065 350.118 883.16 334.023 903.021 334M903.021 332C882.046 332 865.042 349.004 865.042 369.979 865.042 390.954 882.046 407.958 903.021 407.958 923.996 407.958 941 390.954 941 369.979 941.01 349.014 924.022 332.01 903.057 332 903.045 332 903.033 332 903.021 332Z"/><path d="M900.687 387.236C898.232 387.292 895.803 386.721 893.63 385.577L893.63 383.129C895.751 384.537 898.234 385.303 900.78 385.334 901.847 385.337 902.91 385.199 903.941 384.924 904.927 384.665 905.855 384.22 906.674 383.612 907.48 383.001 908.136 382.215 908.591 381.312 909.093 380.273 909.339 379.129 909.31 377.976 909.437 375.794 908.452 373.696 906.692 372.4 904.992 371.174 902.473 370.553 899.21 370.553L896.888 370.553 896.888 368.653 899 368.653C901.972 368.653 904.252 368.053 905.778 366.853 907.364 365.565 908.234 363.593 908.116 361.553 908.231 359.784 907.601 358.048 906.379 356.765 904.95 355.565 903.11 354.968 901.249 355.1 898.998 355.142 896.807 355.836 894.943 357.1L894.943 354.937C897.078 353.793 899.46 353.189 901.882 353.178 903.006 353.175 904.125 353.336 905.203 353.655 906.204 353.947 907.139 354.431 907.955 355.081 908.744 355.725 909.384 356.533 909.83 357.449 910.317 358.488 910.556 359.626 910.53 360.773 910.53 365.121 908.436 367.825 904.13 369.038L903.875 369.109 903.875 369.78 904.186 369.816C905.209 369.929 906.21 370.193 907.156 370.599 908.041 370.977 908.847 371.516 909.534 372.19 910.214 372.869 910.754 373.675 911.122 374.563 911.521 375.542 911.719 376.591 911.704 377.648 911.73 379.059 911.438 380.457 910.848 381.739 910.297 382.9 909.497 383.924 908.504 384.739 907.465 385.576 906.276 386.208 905 386.6 903.603 387.032 902.149 387.246 900.687 387.236Z"/></g></svg>