<svg width="153" height="153" xmlns="http://www.w3.org/2000/svg" xmlns:xlink="http://www.w3.org/1999/xlink" xml:space="preserve" overflow="hidden"><g transform="translate(-100 -336)"><path d="M112.576 363.094 112.576 461.946 240.277 461.946 240.277 363.094ZM237.09 366.281 237.09 385.406 115.764 385.406 115.764 366.281ZM115.764 458.759 115.764 388.594 237.09 388.594 237.09 458.759Z"/><path d="M155.633 375.844C155.633 377.604 154.206 379.031 152.446 379.031 150.685 379.031 149.258 377.604 149.258 375.844 149.258 374.083 150.685 372.656 152.446 372.656 154.206 372.656 155.633 374.083 155.633 375.844Z"/><path d="M144.477 375.844C144.477 377.604 143.05 379.031 141.289 379.031 139.529 379.031 138.102 377.604 138.102 375.844 138.102 374.083 139.529 372.656 141.289 372.656 143.05 372.656 144.477 374.083 144.477 375.844Z"/><path d="M133.321 375.844C133.321 377.604 131.893 379.031 130.133 379.031 128.373 379.031 126.946 377.604 126.946 375.844 126.946 374.083 128.373 372.656 130.133 372.656 131.893 372.656 133.321 374.083 133.321 375.844Z"/><path d="M203.446 410.109C203.446 403.508 198.094 398.156 191.492 398.156 184.891 398.156 179.539 403.508 179.539 410.109 179.539 416.711 184.891 422.062 191.492 422.062 198.091 422.055 203.439 416.708 203.446 410.109ZM200.258 410.109C200.258 414.951 196.334 418.875 191.492 418.875 186.651 418.875 182.727 414.951 182.727 410.109 182.727 405.268 186.651 401.344 191.492 401.344 196.331 401.35 200.252 405.271 200.258 410.109Z"/><path d="M167.586 436.373 167.586 450.75 215.399 450.75 215.399 436.406C215.365 434.168 214.32 432.066 212.555 430.689 209.097 428.193 205.237 426.307 201.143 425.111 198.014 424.201 194.778 423.712 191.52 423.656 188.233 423.665 184.966 424.158 181.823 425.121 177.695 426.19 173.825 428.08 170.444 430.678 168.681 432.048 167.631 434.141 167.586 436.373ZM170.774 436.406C170.806 435.148 171.401 433.971 172.395 433.198 175.454 430.853 178.955 429.148 182.689 428.187 185.543 427.309 188.512 426.856 191.499 426.844 194.462 426.897 197.405 427.345 200.25 428.175 203.977 429.26 207.492 430.973 210.645 433.239 211.618 434.019 212.193 435.192 212.211 436.44L212.211 447.562 170.774 447.562Z"/><path d="M138.385 399.669 138.385 417.724C138.381 419.426 139.753 420.811 141.455 420.823L157.142 420.823 165.344 429.134 165.344 420.823 168.212 420.823C169.92 420.814 171.298 419.423 171.29 417.715L171.29 399.659C171.294 397.955 169.917 396.57 168.212 396.562L141.465 396.562C139.757 396.57 138.378 397.961 138.385 399.669ZM141.465 417.635 141.573 399.659 168.099 399.75 168.099 417.724 163.75 417.635 162.156 417.635 162.156 421.366 158.471 417.635Z"/></g></svg>